<svg xmlns="http://www.w3.org/2000/svg" xmlns:xlink="http://www.w3.org/1999/xlink" width="500" zoomAndPan="magnify" viewBox="0 0 375 374.999991" height="500" preserveAspectRatio="xMidYMid meet" version="1.0"><defs><g/><clipPath id="ab34f5c5ab"><path d="M 99.136719 156.75 L 137 156.75 L 137 195 L 99.136719 195 Z M 99.136719 156.75 " clip-rule="nonzero"/></clipPath><clipPath id="bb4820431c"><path d="M 121 178 L 160.636719 178 L 160.636719 218.25 L 121 218.25 Z M 121 178 " clip-rule="nonzero"/></clipPath></defs><g fill="#0d1117" fill-opacity="1"><g transform="translate(164.637606, 200.624987)"><g><path d="M 31.578125 -23.28125 C 31.578125 -21.21875 30.847656 -19.441406 29.390625 -17.953125 C 27.929688 -16.460938 25.8125 -15.390625 23.03125 -14.734375 C 24.53125 -14.316406 25.664062 -13.640625 26.4375 -12.703125 C 27.21875 -11.773438 27.609375 -10.707031 27.609375 -9.5 C 27.609375 -7.582031 27.003906 -5.921875 25.796875 -4.515625 C 24.597656 -3.109375 22.847656 -2.019531 20.546875 -1.25 C 18.242188 -0.488281 15.46875 -0.109375 12.21875 -0.109375 C 11.007812 -0.109375 10.039062 -0.144531 9.3125 -0.21875 C 9.289062 0.457031 9 0.960938 8.4375 1.296875 C 7.882812 1.640625 7.171875 1.8125 6.296875 1.8125 C 5.421875 1.8125 4.816406 1.617188 4.484375 1.234375 C 4.160156 0.847656 4.023438 0.28125 4.078125 -0.46875 C 4.296875 -3.863281 4.71875 -7.421875 5.34375 -11.140625 C 5.976562 -14.867188 6.78125 -18.46875 7.75 -21.9375 C 7.914062 -22.539062 8.253906 -22.960938 8.765625 -23.203125 C 9.273438 -23.453125 9.941406 -23.578125 10.765625 -23.578125 C 12.242188 -23.578125 12.984375 -23.160156 12.984375 -22.328125 C 12.984375 -21.992188 12.910156 -21.609375 12.765625 -21.171875 C 12.140625 -19.273438 11.507812 -16.707031 10.875 -13.46875 C 10.25 -10.238281 9.800781 -7.15625 9.53125 -4.21875 C 10.695312 -4.125 11.644531 -4.078125 12.375 -4.078125 C 15.757812 -4.078125 18.242188 -4.566406 19.828125 -5.546875 C 21.421875 -6.523438 22.21875 -7.78125 22.21875 -9.3125 C 22.21875 -10.375 21.765625 -11.269531 20.859375 -12 C 19.953125 -12.726562 18.429688 -13.128906 16.296875 -13.203125 C 15.804688 -13.222656 15.460938 -13.34375 15.265625 -13.5625 C 15.078125 -13.78125 14.984375 -14.132812 14.984375 -14.625 C 14.984375 -15.320312 15.128906 -15.890625 15.421875 -16.328125 C 15.710938 -16.765625 16.25 -17 17.03125 -17.03125 C 18.75 -17.070312 20.304688 -17.320312 21.703125 -17.78125 C 23.097656 -18.25 24.191406 -18.898438 24.984375 -19.734375 C 25.785156 -20.566406 26.1875 -21.539062 26.1875 -22.65625 C 26.1875 -24.0625 25.492188 -25.171875 24.109375 -25.984375 C 22.734375 -26.796875 20.613281 -27.203125 17.75 -27.203125 C 15.15625 -27.203125 12.644531 -26.867188 10.21875 -26.203125 C 7.789062 -25.535156 5.726562 -24.695312 4.03125 -23.6875 C 3.257812 -23.21875 2.609375 -22.984375 2.078125 -22.984375 C 1.640625 -22.984375 1.304688 -23.132812 1.078125 -23.4375 C 0.847656 -23.738281 0.734375 -24.125 0.734375 -24.59375 C 0.734375 -25.195312 0.859375 -25.71875 1.109375 -26.15625 C 1.359375 -26.59375 1.972656 -27.085938 2.953125 -27.640625 C 4.984375 -28.804688 7.367188 -29.71875 10.109375 -30.375 C 12.847656 -31.03125 15.648438 -31.359375 18.515625 -31.359375 C 22.898438 -31.359375 26.171875 -30.617188 28.328125 -29.140625 C 30.492188 -27.660156 31.578125 -25.707031 31.578125 -23.28125 Z M 31.578125 -23.28125 "/></g></g></g><g fill="#0d1117" fill-opacity="1"><g transform="translate(198.856596, 200.624987)"><g><path d="M 13.828125 0.1875 C 11.660156 0.1875 9.710938 -0.296875 7.984375 -1.265625 C 6.253906 -2.242188 4.878906 -3.671875 3.859375 -5.546875 C 2.835938 -7.421875 2.328125 -9.671875 2.328125 -12.296875 C 2.328125 -15.984375 3 -19.234375 4.34375 -22.046875 C 5.6875 -24.859375 7.515625 -27.023438 9.828125 -28.546875 C 12.148438 -30.078125 14.71875 -30.84375 17.53125 -30.84375 C 19.6875 -30.84375 21.628906 -30.359375 23.359375 -29.390625 C 25.097656 -28.421875 26.476562 -26.992188 27.5 -25.109375 C 28.519531 -23.234375 29.03125 -20.988281 29.03125 -18.375 C 29.03125 -14.6875 28.351562 -11.4375 27 -8.625 C 25.65625 -5.8125 23.828125 -3.640625 21.515625 -2.109375 C 19.203125 -0.578125 16.640625 0.1875 13.828125 0.1875 Z M 14.1875 -4.109375 C 16.082031 -4.109375 17.75 -4.691406 19.1875 -5.859375 C 20.632812 -7.023438 21.742188 -8.644531 22.515625 -10.71875 C 23.296875 -12.789062 23.6875 -15.132812 23.6875 -17.75 C 23.6875 -20.632812 23.078125 -22.820312 21.859375 -24.3125 C 20.648438 -25.800781 19.085938 -26.546875 17.171875 -26.546875 C 15.304688 -26.546875 13.65625 -25.96875 12.21875 -24.8125 C 10.789062 -23.664062 9.675781 -22.054688 8.875 -19.984375 C 8.070312 -17.910156 7.671875 -15.550781 7.671875 -12.90625 C 7.671875 -10.019531 8.273438 -7.832031 9.484375 -6.34375 C 10.703125 -4.851562 12.269531 -4.109375 14.1875 -4.109375 Z M 14.1875 -4.109375 "/></g></g></g><g fill="#0d1117" fill-opacity="1"><g transform="translate(232.675593, 200.624987)"><g><path d="M 30.59375 -30.1875 C 31.34375 -30.039062 31.90625 -29.785156 32.28125 -29.421875 C 32.65625 -29.054688 32.84375 -28.632812 32.84375 -28.15625 C 32.84375 -27.351562 32.617188 -26.769531 32.171875 -26.40625 C 31.722656 -26.039062 31.015625 -25.894531 30.046875 -25.96875 C 27.859375 -26.132812 26.148438 -26.25 24.921875 -26.3125 C 23.703125 -26.375 22.097656 -26.414062 20.109375 -26.4375 C 19.210938 -21.976562 18.390625 -17.492188 17.640625 -12.984375 C 17.367188 -11.335938 17.085938 -9.425781 16.796875 -7.25 C 16.515625 -5.082031 16.320312 -3.332031 16.21875 -2 C 16.175781 -1.300781 15.882812 -0.757812 15.34375 -0.375 C 14.8125 0 14.171875 0.1875 13.421875 0.1875 C 12.617188 0.1875 12 -0.00390625 11.5625 -0.390625 C 11.125 -0.785156 10.90625 -1.296875 10.90625 -1.921875 C 10.90625 -2.503906 10.992188 -3.46875 11.171875 -4.8125 C 11.359375 -6.164062 11.578125 -7.582031 11.828125 -9.0625 C 12.085938 -10.539062 12.289062 -11.820312 12.4375 -12.90625 C 12.707031 -14.75 13.007812 -16.582031 13.34375 -18.40625 C 13.6875 -20.226562 14.03125 -21.953125 14.375 -23.578125 C 14.445312 -23.929688 14.53125 -24.34375 14.625 -24.8125 C 14.71875 -25.289062 14.828125 -25.820312 14.953125 -26.40625 C 12.578125 -26.332031 10.707031 -26.140625 9.34375 -25.828125 C 7.988281 -25.515625 7.023438 -25.070312 6.453125 -24.5 C 5.890625 -23.925781 5.609375 -23.191406 5.609375 -22.296875 C 5.609375 -21.472656 5.847656 -20.6875 6.328125 -19.9375 C 6.421875 -19.757812 6.46875 -19.578125 6.46875 -19.390625 C 6.46875 -18.929688 6.195312 -18.5 5.65625 -18.09375 C 5.113281 -17.695312 4.550781 -17.5 3.96875 -17.5 C 3.550781 -17.5 3.210938 -17.617188 2.953125 -17.859375 C 2.460938 -18.273438 2.054688 -18.863281 1.734375 -19.625 C 1.421875 -20.382812 1.265625 -21.25 1.265625 -22.21875 C 1.265625 -24.28125 1.9375 -25.9375 3.28125 -27.1875 C 4.632812 -28.4375 6.6875 -29.351562 9.4375 -29.9375 C 12.1875 -30.519531 15.722656 -30.8125 20.046875 -30.8125 C 22.710938 -30.8125 24.835938 -30.757812 26.421875 -30.65625 C 28.015625 -30.5625 29.40625 -30.40625 30.59375 -30.1875 Z M 30.59375 -30.1875 "/></g></g></g><g clip-path="url(#ab34f5c5ab)"><path fill="#0d1117" d="M 118.066406 156.75 C 127.738281 156.75 135.753906 164.074219 136.859375 173.609375 C 136.859375 174.160156 136.582031 174.578125 136.03125 174.714844 C 131.054688 175.683594 126.773438 178.167969 123.457031 181.625 C 123.179688 181.898438 122.765625 182.039062 122.351562 181.898438 C 121.382812 181.484375 120.554688 181.070312 119.863281 180.65625 C 124.148438 176.234375 125.667969 172.089844 126.082031 169.464844 L 128.984375 169.464844 C 129.257812 169.464844 129.398438 169.324219 129.398438 168.910156 L 129.398438 166.699219 C 129.398438 166.425781 129.257812 166.148438 128.984375 166.148438 L 120 166.148438 C 119.863281 166.148438 119.726562 166.007812 119.726562 165.871094 L 119.726562 163.800781 C 119.726562 163.523438 119.585938 163.382812 119.308594 163.382812 L 116.824219 163.382812 C 116.546875 163.382812 116.269531 163.523438 116.269531 163.800781 L 116.269531 165.871094 C 116.269531 166.007812 116.132812 166.148438 115.996094 166.148438 L 107.152344 166.148438 C 106.875 166.148438 106.597656 166.425781 106.597656 166.699219 L 106.597656 168.910156 C 106.597656 169.324219 106.875 169.464844 107.152344 169.464844 L 122.902344 169.464844 C 122.351562 171.675781 120.96875 175.128906 117.238281 178.722656 C 114.890625 176.789062 113.921875 174.851562 113.507812 173.746094 C 113.367188 173.332031 112.953125 173.195312 112.539062 173.332031 L 111.019531 173.609375 C 110.742188 173.746094 110.605469 173.886719 110.46875 174.023438 C 110.328125 174.300781 110.328125 174.4375 110.46875 174.714844 C 110.882812 176.097656 112.125 178.445312 114.613281 180.792969 C 112.816406 182.175781 110.605469 183.558594 107.980469 184.941406 C 107.566406 185.078125 107.289062 185.492188 107.566406 185.90625 L 108.257812 187.425781 C 108.257812 187.703125 108.53125 187.839844 108.671875 187.839844 C 108.949219 187.980469 109.085938 187.980469 109.363281 187.839844 C 112.539062 186.320312 115.164062 184.664062 117.375 182.867188 C 118.066406 183.417969 118.894531 183.835938 119.863281 184.25 C 120.140625 184.386719 120.277344 184.664062 120.277344 184.941406 C 120.414062 185.214844 120.414062 185.492188 120.277344 185.769531 C 118.757812 188.117188 117.652344 190.742188 117.101562 193.644531 C 116.960938 194.199219 116.546875 194.472656 115.996094 194.472656 C 106.460938 193.367188 99.136719 185.355469 99.136719 175.683594 C 99.136719 165.179688 107.566406 156.75 118.066406 156.75 Z M 118.066406 156.75 " fill-opacity="1" fill-rule="evenodd"/></g><g clip-path="url(#bb4820431c)"><path fill="#00bef9" d="M 140.867188 178.722656 C 151.78125 178.722656 160.625 187.566406 160.625 198.480469 C 160.625 209.398438 151.78125 218.238281 140.867188 218.238281 C 129.949219 218.238281 121.105469 209.398438 121.105469 198.480469 C 121.105469 187.566406 129.949219 178.722656 140.867188 178.722656 Z M 140.867188 193.230469 L 137.6875 201.660156 L 144.042969 201.660156 Z M 136.03125 205.667969 L 134.511719 209.671875 C 134.371094 210.085938 134.09375 210.503906 133.40625 210.503906 L 130.363281 210.503906 C 129.949219 210.503906 129.535156 210.085938 129.8125 209.535156 C 132.851562 201.519531 136.03125 193.644531 139.070312 185.628906 C 139.207031 185.214844 139.484375 185.214844 139.898438 185.214844 L 141.832031 185.214844 C 142.246094 185.214844 142.523438 185.214844 142.664062 185.628906 C 145.703125 193.644531 148.878906 201.519531 151.921875 209.535156 C 152.195312 210.085938 151.78125 210.503906 151.367188 210.503906 L 148.328125 210.503906 C 147.636719 210.503906 147.359375 210.085938 147.222656 209.671875 L 145.5625 205.667969 Z M 136.03125 205.667969 " fill-opacity="1" fill-rule="evenodd"/></g></svg>